<svg width="183" height="45" viewBox="0 0 183 45" fill="none" xmlns="http://www.w3.org/2000/svg">
<path d="M5.579 45V12.481L20.738 45H23.683L38.842 12.481V44.969H44.081V0.359998H38.997L22.226 35.917L5.362 0.359998H0.34V45H5.579ZM62.9416 45V0.359998H57.4236V45H62.9416ZM73.173 45H78.908L82.411 34.553H101.476L105.01 45H110.745L95.803 0.359998H88.115L73.173 45ZM91.897 6.157L99.74 29.376H84.147L91.897 6.157ZM125.564 45V12.481L140.723 45H143.668L158.827 12.481V44.969H164.066V0.359998H158.982L142.211 35.917L125.347 0.359998H120.325V45H125.564ZM182.926 45V0.359998H177.408V45H182.926Z" fill="white"/>
</svg>
