<svg width="524" height="47" viewBox="0 0 524 47" fill="none" xmlns="http://www.w3.org/2000/svg">
<path d="M18.181 46.93C21.281 46.93 24.0917 46.4133 26.613 45.38C29.1343 44.3467 31.139 42.838 32.627 40.854C34.1357 38.8493 34.89 36.4107 34.89 33.538C34.89 31.3887 34.4973 29.6113 33.712 28.206C32.9267 26.78 31.9347 25.6433 30.736 24.796C29.5373 23.928 28.2973 23.2563 27.016 22.781C25.7553 22.3057 24.6393 21.9337 23.668 21.665L15.174 19.216C14.0787 18.906 12.9523 18.5133 11.795 18.038C10.6377 17.542 9.66633 16.8807 8.881 16.054C8.11633 15.2067 7.734 14.101 7.734 12.737C7.734 11.3523 8.15767 10.133 9.005 9.079C9.873 8.00433 11.0407 7.16733 12.508 6.568C13.996 5.96866 15.6493 5.67933 17.468 5.7C20.2993 5.72067 22.769 6.52667 24.877 8.118C27.0057 9.68867 28.2973 11.8277 28.752 14.535L34.611 13.512C33.7843 9.44067 31.852 6.258 28.814 3.964C25.7967 1.64933 22.0353 0.481664 17.53 0.460997C14.5747 0.440332 11.9087 0.925999 9.532 1.918C7.176 2.91 5.316 4.34633 3.952 6.227C2.588 8.087 1.906 10.3397 1.906 12.985C1.906 15.1757 2.36067 16.9943 3.27 18.441C4.2 19.8877 5.39867 21.045 6.866 21.913C8.354 22.7603 9.92467 23.432 11.578 23.928L22.955 27.307C24.5463 27.7823 25.9827 28.5057 27.264 29.477C28.5453 30.4277 29.186 31.8847 29.186 33.848C29.186 35.46 28.7003 36.855 27.729 38.033C26.7783 39.211 25.497 40.1203 23.885 40.761C22.273 41.381 20.4647 41.691 18.46 41.691C15.3393 41.691 12.6423 40.9057 10.369 39.335C8.09567 37.7437 6.59733 35.5427 5.874 32.732L0.17 33.631C0.666 36.359 1.73033 38.7253 3.363 40.73C5.01633 42.714 7.10367 44.2433 9.625 45.318C12.167 46.3927 15.019 46.93 18.181 46.93ZM42.3227 46H48.0577L51.5607 35.553H70.6257L74.1597 46H79.8947L64.9527 1.36H57.2647L42.3227 46ZM53.2967 30.376L61.0467 7.157L68.8897 30.376H53.2967ZM89.4742 46H95.0542V11.094L118.335 46H123.915V1.36H118.335V36.235L95.0542 1.36H89.4742V46ZM153.056 46H158.574V26.439H175.376V20.921H158.574V6.878H179.096V1.36H153.056V46ZM188.691 46H194.209V29.508H207.26L215.258 46H221.582L212.964 28.299C215.486 27.245 217.397 25.5813 218.699 23.308C220.001 21.014 220.652 18.3893 220.652 15.434C220.652 11.8793 219.712 8.831 217.831 6.289C215.971 3.72633 213.233 2.166 209.616 1.608C209.038 1.50467 208.449 1.44267 207.849 1.422C207.27 1.38066 206.764 1.36 206.33 1.36H188.691V46ZM194.209 24.269V6.599H206.144C206.537 6.599 206.981 6.61967 207.477 6.661C207.994 6.70233 208.48 6.77466 208.934 6.878C211.083 7.35333 212.633 8.43833 213.584 10.133C214.535 11.807 215.01 13.574 215.01 15.434C215.01 17.294 214.535 19.0713 213.584 20.766C212.633 22.44 211.083 23.5147 208.934 23.99C208.48 24.0933 207.994 24.1657 207.477 24.207C206.981 24.2483 206.537 24.269 206.144 24.269H194.209ZM229.34 46H235.075L238.578 35.553H257.643L261.177 46H266.912L251.97 1.36H244.282L229.34 46ZM240.314 30.376L248.064 7.157L255.907 30.376H240.314ZM276.491 46H282.071V11.094L305.352 46H310.932V1.36H305.352V36.235L282.071 1.36H276.491V46ZM341.983 46.93C347.149 46.93 351.396 45.6177 354.724 42.993C358.072 40.3477 360.376 36.8137 361.637 32.391L356.026 30.903C355.116 34.2097 353.484 36.8343 351.128 38.777C348.792 40.699 345.744 41.66 341.983 41.66C338.655 41.66 335.876 40.9057 333.644 39.397C331.412 37.8883 329.738 35.7803 328.622 33.073C327.506 30.3657 326.958 27.2347 326.979 23.68C326.999 20.1047 327.568 16.9737 328.684 14.287C329.8 11.5797 331.463 9.47166 333.675 7.963C335.886 6.45433 338.655 5.7 341.983 5.7C345.744 5.7 348.792 6.661 351.128 8.583C353.484 10.505 355.116 13.1297 356.026 16.457L361.637 14.969C360.376 10.5257 358.072 6.99166 354.724 4.367C351.396 1.74233 347.149 0.429999 341.983 0.429999C337.539 0.429999 333.757 1.41166 330.637 3.375C327.537 5.33833 325.181 8.06633 323.569 11.559C321.957 15.0517 321.151 19.092 321.151 23.68C321.151 28.268 321.957 32.3083 323.569 35.801C325.181 39.2937 327.537 42.0217 330.637 43.985C333.757 45.9483 337.539 46.93 341.983 46.93ZM373.085 46H378.603V1.36H373.085V46ZM407.776 46.93C410.876 46.93 413.687 46.4133 416.208 45.38C418.729 44.3467 420.734 42.838 422.222 40.854C423.731 38.8493 424.485 36.4107 424.485 33.538C424.485 31.3887 424.092 29.6113 423.307 28.206C422.522 26.78 421.53 25.6433 420.331 24.796C419.132 23.928 417.892 23.2563 416.611 22.781C415.35 22.3057 414.234 21.9337 413.263 21.665L404.769 19.216C403.674 18.906 402.547 18.5133 401.39 18.038C400.233 17.542 399.261 16.8807 398.476 16.054C397.711 15.2067 397.329 14.101 397.329 12.737C397.329 11.3523 397.753 10.133 398.6 9.079C399.468 8.00433 400.636 7.16733 402.103 6.568C403.591 5.96866 405.244 5.67933 407.063 5.7C409.894 5.72067 412.364 6.52667 414.472 8.118C416.601 9.68867 417.892 11.8277 418.347 14.535L424.206 13.512C423.379 9.44067 421.447 6.258 418.409 3.964C415.392 1.64933 411.63 0.481664 407.125 0.460997C404.17 0.440332 401.504 0.925999 399.127 1.918C396.771 2.91 394.911 4.34633 393.547 6.227C392.183 8.087 391.501 10.3397 391.501 12.985C391.501 15.1757 391.956 16.9943 392.865 18.441C393.795 19.8877 394.994 21.045 396.461 21.913C397.949 22.7603 399.52 23.432 401.173 23.928L412.55 27.307C414.141 27.7823 415.578 28.5057 416.859 29.477C418.14 30.4277 418.781 31.8847 418.781 33.848C418.781 35.46 418.295 36.855 417.324 38.033C416.373 39.211 415.092 40.1203 413.48 40.761C411.868 41.381 410.06 41.691 408.055 41.691C404.934 41.691 402.237 40.9057 399.964 39.335C397.691 37.7437 396.192 35.5427 395.469 32.732L389.765 33.631C390.261 36.359 391.325 38.7253 392.958 40.73C394.611 42.714 396.699 44.2433 399.22 45.318C401.762 46.3927 404.614 46.93 407.776 46.93ZM453.37 46.93C458.536 46.93 462.783 45.6177 466.111 42.993C469.459 40.3477 471.763 36.8137 473.024 32.391L467.413 30.903C466.503 34.2097 464.871 36.8343 462.515 38.777C460.179 40.699 457.131 41.66 453.37 41.66C450.042 41.66 447.263 40.9057 445.031 39.397C442.799 37.8883 441.125 35.7803 440.009 33.073C438.893 30.3657 438.345 27.2347 438.366 23.68C438.386 20.1047 438.955 16.9737 440.071 14.287C441.187 11.5797 442.85 9.47166 445.062 7.963C447.273 6.45433 450.042 5.7 453.37 5.7C457.131 5.7 460.179 6.661 462.515 8.583C464.871 10.505 466.503 13.1297 467.413 16.457L473.024 14.969C471.763 10.5257 469.459 6.99166 466.111 4.367C462.783 1.74233 458.536 0.429999 453.37 0.429999C448.926 0.429999 445.144 1.41166 442.024 3.375C438.924 5.33833 436.568 8.06633 434.956 11.559C433.344 15.0517 432.538 19.092 432.538 23.68C432.538 28.268 433.344 32.3083 434.956 35.801C436.568 39.2937 438.924 42.0217 442.024 43.985C445.144 45.9483 448.926 46.93 453.37 46.93ZM502.204 46.93C506.668 46.93 510.45 45.9483 513.55 43.985C516.65 42.0217 519.006 39.2937 520.618 35.801C522.23 32.3083 523.036 28.268 523.036 23.68C523.036 19.092 522.23 15.0517 520.618 11.559C519.006 8.06633 516.65 5.33833 513.55 3.375C510.45 1.41166 506.668 0.429999 502.204 0.429999C497.761 0.429999 493.979 1.41166 490.858 3.375C487.758 5.33833 485.402 8.06633 483.79 11.559C482.178 15.0517 481.372 19.092 481.372 23.68C481.372 28.268 482.178 32.3083 483.79 35.801C485.402 39.2937 487.758 42.0217 490.858 43.985C493.979 45.9483 497.761 46.93 502.204 46.93ZM502.204 41.66C498.877 41.6393 496.097 40.8747 493.865 39.366C491.654 37.8573 489.99 35.7597 488.874 33.073C487.758 30.3657 487.211 27.2347 487.231 23.68C487.252 20.1047 487.81 16.9633 488.905 14.256C490.021 11.5487 491.685 9.44066 493.896 7.932C496.108 6.42333 498.877 5.67933 502.204 5.7C505.532 5.72067 508.301 6.48533 510.512 7.994C512.744 9.50267 514.408 11.6003 515.503 14.287C516.619 16.9737 517.177 20.1047 517.177 23.68C517.177 27.2347 516.619 30.376 515.503 33.104C514.408 35.8113 512.744 37.9193 510.512 39.428C508.301 40.9367 505.532 41.6807 502.204 41.66Z" fill="white"/>
</svg>
