<svg width="72" height="47" viewBox="0 0 72 47" fill="none" xmlns="http://www.w3.org/2000/svg">
<path d="M18.181 46.93C21.281 46.93 24.0917 46.4133 26.613 45.38C29.1343 44.3467 31.139 42.838 32.627 40.854C34.1357 38.8493 34.89 36.4107 34.89 33.538C34.89 31.3887 34.4973 29.6113 33.712 28.206C32.9267 26.78 31.9347 25.6433 30.736 24.796C29.5373 23.928 28.2973 23.2563 27.016 22.781C25.7553 22.3057 24.6393 21.9337 23.668 21.665L15.174 19.216C14.0787 18.906 12.9523 18.5133 11.795 18.038C10.6377 17.542 9.66633 16.8807 8.881 16.054C8.11633 15.2067 7.734 14.101 7.734 12.737C7.734 11.3523 8.15767 10.133 9.005 9.079C9.873 8.00433 11.0407 7.16733 12.508 6.568C13.996 5.96866 15.6493 5.67933 17.468 5.7C20.2993 5.72067 22.769 6.52667 24.877 8.118C27.0057 9.68867 28.2973 11.8277 28.752 14.535L34.611 13.512C33.7843 9.44067 31.852 6.258 28.814 3.964C25.7967 1.64933 22.0353 0.481664 17.53 0.460997C14.5747 0.440332 11.9087 0.925999 9.532 1.918C7.176 2.91 5.316 4.34633 3.952 6.227C2.588 8.087 1.906 10.3397 1.906 12.985C1.906 15.1757 2.36067 16.9943 3.27 18.441C4.2 19.8877 5.39867 21.045 6.866 21.913C8.354 22.7603 9.92467 23.432 11.578 23.928L22.955 27.307C24.5463 27.7823 25.9827 28.5057 27.264 29.477C28.5453 30.4277 29.186 31.8847 29.186 33.848C29.186 35.46 28.7003 36.855 27.729 38.033C26.7783 39.211 25.497 40.1203 23.885 40.761C22.273 41.381 20.4647 41.691 18.46 41.691C15.3393 41.691 12.6423 40.9057 10.369 39.335C8.09567 37.7437 6.59733 35.5427 5.874 32.732L0.17 33.631C0.666 36.359 1.73033 38.7253 3.363 40.73C5.01633 42.714 7.10367 44.2433 9.625 45.318C12.167 46.3927 15.019 46.93 18.181 46.93ZM45.4227 46H50.9407V26.439H67.7427V20.921H50.9407V6.878H71.4627V1.36H45.4227V46Z" fill="white"/>
</svg>
