<svg width="72" height="26" viewBox="0 0 72 26" fill="none" xmlns="http://www.w3.org/2000/svg">
<path d="M71.5409 0.478271L19.2 22.767C14.8591 24.6035 11.2139 25.5217 8.26435 25.5217C4.92522 25.5217 2.50435 24.3531 1.00174 22.0157C0.0556514 20.5131 -0.222609 18.607 0.166956 16.2974C0.556521 13.9878 1.58609 11.5252 3.25565 8.90957C4.64696 6.79479 6.92869 4.01218 10.1009 0.56175C8.98783 2.34262 8.2087 4.17914 7.76348 6.07131C6.9287 9.63305 7.68 12.2487 10.0174 13.9183C11.1304 14.6974 12.6609 15.087 14.6087 15.087C16.167 15.087 17.92 14.8365 19.8678 14.3357L71.5409 0.478271Z" fill="white"/>
</svg>
