<svg width="219" height="38" viewBox="0 0 219 38" fill="none" xmlns="http://www.w3.org/2000/svg">
<path d="M0.648865 36.472C2.76086 37.192 4.87286 37.624 7.12886 37.624C16.6329 37.624 17.2569 30.184 17.2569 25.336V0.808022H7.46487V23.416C7.46487 25.528 7.36887 28.456 4.63287 28.456C3.00087 28.456 1.56086 27.592 0.648865 26.344V36.472Z" fill="white"/>
<path d="M36.1059 0.808022V23.608C36.1059 24.52 36.1539 25.768 35.8659 26.776C35.6259 27.736 35.0019 28.504 33.6099 28.504C32.2659 28.504 31.6419 27.736 31.3539 26.728C31.0659 25.768 31.1139 24.52 31.1139 23.56V0.808022H21.3219V24.472C21.3219 28.84 22.2819 37.624 33.6099 37.624C44.9379 37.624 45.8979 28.84 45.8979 24.472V0.808022H36.1059Z" fill="white"/>
<path d="M49.0692 36.136C51.3732 37.096 53.9172 37.624 56.4132 37.624C63.2292 37.624 67.9332 32.248 67.9332 25.528C67.9332 22.792 67.3092 20.872 66.1572 19.24C65.0532 17.608 63.4212 16.264 61.3572 14.824C60.8292 14.392 60.1092 13.912 59.5812 13.336C59.0532 12.76 58.6212 12.088 58.6212 11.32C58.6212 9.92802 60.0132 9.11202 61.1652 9.11202C63.4212 9.11202 65.7732 11.176 66.9252 13V2.00802C64.8612 0.90402 62.3172 0.184021 59.9652 0.184021C51.6132 0.184021 48.9252 7.86402 48.9252 12.088C48.9252 14.728 49.6932 16.744 50.8932 18.424C52.1412 20.152 53.8212 21.544 55.7412 23.032C56.3652 23.464 56.9412 23.896 57.3732 24.424C57.8532 24.952 58.1412 25.576 58.1412 26.44C58.1412 28.024 56.6052 28.84 55.2612 28.84C52.7652 28.84 50.4132 26.824 49.0692 24.808V36.136Z" fill="white"/>
<path d="M84.5739 37V9.64002H90.1899V0.808022H69.4059V9.64002H74.7819V37H84.5739Z" fill="white"/>
<path d="M105.708 37H114.252C120.204 37 130.716 35.464 130.716 18.76C130.716 7.81602 124.716 0.808022 113.58 0.808022H105.708V37ZM115.5 9.83202C119.964 9.83202 120.732 15.304 120.732 19.24C120.732 22.648 119.964 28.216 115.5 28.264V9.83202Z" fill="white"/>
<path d="M132.883 18.904C132.883 27.736 136.771 37.624 146.707 37.624C156.643 37.624 160.531 27.736 160.531 18.904C160.531 10.072 156.643 0.184021 146.707 0.184021C136.771 0.184021 132.883 10.072 132.883 18.904ZM142.867 18.904C142.867 16.648 143.011 9.30402 146.707 9.30402C150.403 9.30402 150.547 16.648 150.547 18.904C150.547 21.16 150.403 28.504 146.707 28.504C143.011 28.504 142.867 21.16 142.867 18.904Z" fill="white"/>
<path d="M186.649 37V0.808022H176.857V37H186.649Z" fill="white"/>
<path d="M204.371 37V9.64002H209.987V0.808022H189.203V9.64002H194.579V37H204.371Z" fill="white"/>
<path d="M213.267 37.528C216.291 37.528 218.787 35.128 218.787 32.104C218.787 28.888 216.195 26.536 213.075 26.536C210.243 26.536 207.795 29.032 207.795 31.96C207.795 35.032 210.195 37.528 213.267 37.528Z" fill="white"/>
</svg>
