<svg width="180" height="45" viewBox="0 0 180 45" fill="none" xmlns="http://www.w3.org/2000/svg">
<path d="M37.6486 0.664206V44.2528C37.6486 44.5849 37.3998 44.917 36.9852 44.917H32.4243C30.3511 44.917 28.3609 43.8376 27.1999 42.0941L6.63412 10.2952L7.29753 26.1531V44.3358C7.29753 44.6679 7.04875 45 6.63412 45H0.663408C0.331702 45 0 44.7509 0 44.3358V0.664206C0 0.332103 0.248776 0 0.663408 0H5.14144C7.2146 0 9.20484 1.07934 10.3658 2.82288L30.9316 34.5387L30.2682 18.6808V0.664206C30.2682 0.332103 30.517 0 30.9316 0H36.9023C37.3999 0 37.6486 0.249077 37.6486 0.664206Z" fill="white"/>
<path d="M98.8484 44.834H92.546C92.1313 44.834 91.7996 44.4188 91.9655 44.0037L108.717 0.581181C108.883 0.249078 109.214 0 109.546 0H117.507C117.922 0 118.253 0.249078 118.336 0.581181L135.17 44.0037C135.336 44.4188 135.004 44.834 134.59 44.834H128.287C128.039 44.834 127.79 44.6679 127.707 44.4188L114.19 8.71771C114.024 8.21956 113.195 8.21956 113.029 8.71771L99.5118 44.4188C99.346 44.6679 99.0972 44.834 98.8484 44.834Z" fill="white"/>
<path d="M179.121 43.8376L166.517 27.7306C173.648 26.4022 177.795 21.5867 177.795 14.1974C177.795 5.72878 172.321 0 162.536 0H144.956C144.458 0 144.043 0.415129 144.043 0.913284C144.043 4.23432 146.697 6.89114 150.014 6.89114H161.873C167.76 6.89114 170.58 9.88007 170.58 14.2804C170.58 18.6808 167.843 21.6697 161.873 21.6697H145.121C144.624 21.6697 144.209 22.0849 144.209 22.583V44.1697C144.209 44.5018 144.458 44.834 144.873 44.834H150.843C151.175 44.834 151.507 44.5849 151.507 44.1697V28.1458H158.39L169.336 42.4262C170.497 44.0037 172.321 44.834 174.312 44.834H178.873C179.204 44.834 179.453 44.2528 179.121 43.8376Z" fill="white"/>
<path d="M79.9412 0H52.1608C51.6632 0 51.3315 0.332103 51.3315 0.830258C51.3315 4.15129 54.0681 6.89114 57.3852 6.89114H79.9412C80.2729 6.89114 80.6046 6.64207 80.6046 6.22694V0.581181C80.5217 0.249078 80.2729 0 79.9412 0ZM79.9412 37.9428H59.2096C58.8779 37.9428 58.5461 37.6937 58.5461 37.2786V26.0701C58.5461 25.738 58.7949 25.4059 59.2096 25.4059H78.3656C78.6973 25.4059 79.029 25.1568 79.029 24.7417V19.0959C79.029 18.7638 78.7802 18.4317 78.3656 18.4317H52.2437C51.7462 18.4317 51.3315 18.8469 51.3315 19.345V43.8376C51.3315 44.3358 51.7462 44.7509 52.2437 44.7509H79.9412C80.2729 44.7509 80.6046 44.5018 80.6046 44.0867V38.441C80.5217 38.1919 80.2729 37.9428 79.9412 37.9428Z" fill="white"/>
</svg>
