<svg width="449" height="452" viewBox="0 0 449 452" fill="none" xmlns="http://www.w3.org/2000/svg">
<g style="mix-blend-mode:overlay" filter="url(#filter0_f_1068_22302)">
<path d="M348.391 40.8766L262.884 168.71C256.919 177.575 268.282 187.871 276.236 180.721L360.606 107.224C362.879 105.222 366.288 106.938 366.288 109.798V340.012C366.288 343.158 362.31 344.588 360.322 342.3L105.791 35.4429C97.5525 25.7196 85.3373 20 72.5539 20H63.7476C39.6012 20 20 39.7327 20 63.755V387.771C20 412.079 39.6012 431.526 63.4635 431.526C78.5195 431.526 92.7232 423.518 100.677 410.649L186.184 283.102C192.15 274.237 180.787 263.941 172.832 271.091L88.4621 344.588C86.1895 346.59 82.7806 344.874 82.7806 342.014V111.8C82.7806 108.654 86.7576 107.224 88.7462 109.512L342.993 416.083C351.232 425.806 363.447 431.526 376.23 431.526H385.036C409.183 431.526 428.5 411.793 428.5 387.771V63.755C428.5 39.4467 408.899 20 385.036 20C370.265 20 356.345 28.0075 348.391 40.8766Z" fill="url(#paint0_linear_1068_22302)"/>
</g>
<g style="mix-blend-mode:overlay">
<path d="M348.391 40.8766L262.884 168.71C256.919 177.575 268.282 187.871 276.236 180.721L360.606 107.224C362.879 105.222 366.288 106.938 366.288 109.798V340.012C366.288 343.158 362.31 344.588 360.322 342.3L105.791 35.4429C97.5525 25.7196 85.3373 20 72.5539 20H63.7476C39.6012 20 20 39.7327 20 63.755V387.771C20 412.079 39.6012 431.526 63.4635 431.526C78.5195 431.526 92.7232 423.518 100.677 410.649L186.184 283.102C192.15 274.237 180.787 263.941 172.832 271.091L88.4621 344.588C86.1895 346.59 82.7806 344.874 82.7806 342.014V111.8C82.7806 108.654 86.7576 107.224 88.7462 109.512L342.993 416.083C351.232 425.806 363.447 431.526 376.23 431.526H385.036C409.183 431.526 428.5 411.793 428.5 387.771V63.755C428.5 39.4467 408.899 20 385.036 20C370.265 20 356.345 28.0075 348.391 40.8766Z" fill="url(#paint1_linear_1068_22302)"/>
</g>
<g style="mix-blend-mode:overlay" filter="url(#filter1_f_1068_22302)">
<path d="M348.391 40.8766L262.884 168.71C256.919 177.575 268.282 187.871 276.236 180.721L360.606 107.224C362.879 105.222 366.288 106.938 366.288 109.798V340.012C366.288 343.158 362.31 344.588 360.322 342.3L105.791 35.4429C97.5525 25.7196 85.3373 20 72.5539 20H63.7476C39.6012 20 20 39.7327 20 63.755V387.771C20 412.079 39.6012 431.526 63.4635 431.526C78.5195 431.526 92.7232 423.518 100.677 410.649L186.184 283.102C192.15 274.237 180.787 263.941 172.832 271.091L88.4621 344.588C86.1895 346.59 82.7806 344.874 82.7806 342.014V111.8C82.7806 108.654 86.7576 107.224 88.7462 109.512L342.993 416.083C351.232 425.806 363.447 431.526 376.23 431.526H385.036C409.183 431.526 428.5 411.793 428.5 387.771V63.755C428.5 39.4467 408.899 20 385.036 20C370.265 20 356.345 28.0075 348.391 40.8766Z" stroke="url(#paint2_linear_1068_22302)" stroke-width="3" stroke-miterlimit="10"/>
</g>
<g filter="url(#filter2_f_1068_22302)">
<path d="M348.391 40.8766L262.884 168.71C256.919 177.575 268.282 187.871 276.236 180.721L360.606 107.224C362.879 105.222 366.288 106.938 366.288 109.798V340.012C366.288 343.158 362.31 344.588 360.322 342.3L105.791 35.4429C97.5525 25.7196 85.3373 20 72.5539 20H63.7476C39.6012 20 20 39.7327 20 63.755V387.771C20 412.079 39.6012 431.526 63.4635 431.526C78.5195 431.526 92.7232 423.518 100.677 410.649L186.184 283.102C192.15 274.237 180.787 263.941 172.832 271.091L88.4621 344.588C86.1895 346.59 82.7806 344.874 82.7806 342.014V111.8C82.7806 108.654 86.7576 107.224 88.7462 109.512L342.993 416.083C351.232 425.806 363.447 431.526 376.23 431.526H385.036C409.183 431.526 428.5 411.793 428.5 387.771V63.755C428.5 39.4467 408.899 20 385.036 20C370.265 20 356.345 28.0075 348.391 40.8766Z" stroke="url(#paint3_linear_1068_22302)" stroke-width="3" stroke-miterlimit="10"/>
</g>
<g style="mix-blend-mode:overlay">
<path d="M348.391 40.8766L262.884 168.71C256.919 177.575 268.282 187.871 276.236 180.721L360.606 107.224C362.879 105.222 366.288 106.938 366.288 109.798V340.012C366.288 343.158 362.31 344.588 360.322 342.3L105.791 35.4429C97.5525 25.7196 85.3373 20 72.5539 20H63.7476C39.6012 20 20 39.7327 20 63.755V387.771C20 412.079 39.6012 431.526 63.4635 431.526C78.5195 431.526 92.7232 423.518 100.677 410.649L186.184 283.102C192.15 274.237 180.787 263.941 172.832 271.091L88.4621 344.588C86.1895 346.59 82.7806 344.874 82.7806 342.014V111.8C82.7806 108.654 86.7576 107.224 88.7462 109.512L342.993 416.083C351.232 425.806 363.447 431.526 376.23 431.526H385.036C409.183 431.526 428.5 411.793 428.5 387.771V63.755C428.5 39.4467 408.899 20 385.036 20C370.265 20 356.345 28.0075 348.391 40.8766Z" stroke="url(#paint4_linear_1068_22302)" stroke-width="3" stroke-miterlimit="10"/>
</g>
<defs>
<filter id="filter0_f_1068_22302" x="0" y="0" width="448.5" height="451.526" filterUnits="userSpaceOnUse" color-interpolation-filters="sRGB">
<feFlood flood-opacity="0" result="BackgroundImageFix"/>
<feBlend mode="normal" in="SourceGraphic" in2="BackgroundImageFix" result="shape"/>
<feGaussianBlur stdDeviation="10" result="effect1_foregroundBlur_1068_22302"/>
</filter>
<filter id="filter1_f_1068_22302" x="15.5" y="15.5" width="417.5" height="420.526" filterUnits="userSpaceOnUse" color-interpolation-filters="sRGB">
<feFlood flood-opacity="0" result="BackgroundImageFix"/>
<feBlend mode="normal" in="SourceGraphic" in2="BackgroundImageFix" result="shape"/>
<feGaussianBlur stdDeviation="1.5" result="effect1_foregroundBlur_1068_22302"/>
</filter>
<filter id="filter2_f_1068_22302" x="12.5" y="12.5" width="423.5" height="426.526" filterUnits="userSpaceOnUse" color-interpolation-filters="sRGB">
<feFlood flood-opacity="0" result="BackgroundImageFix"/>
<feBlend mode="normal" in="SourceGraphic" in2="BackgroundImageFix" result="shape"/>
<feGaussianBlur stdDeviation="3" result="effect1_foregroundBlur_1068_22302"/>
</filter>
<linearGradient id="paint0_linear_1068_22302" x1="224.25" y1="20" x2="224.25" y2="431.526" gradientUnits="userSpaceOnUse">
<stop stop-color="white" stop-opacity="0"/>
<stop offset="1" stop-color="white"/>
</linearGradient>
<linearGradient id="paint1_linear_1068_22302" x1="224.25" y1="20" x2="224.25" y2="431.526" gradientUnits="userSpaceOnUse">
<stop stop-color="white" stop-opacity="0"/>
<stop offset="1" stop-color="white"/>
</linearGradient>
<linearGradient id="paint2_linear_1068_22302" x1="20" y1="36.6426" x2="401.267" y2="416.396" gradientUnits="userSpaceOnUse">
<stop stop-color="#00D5E8"/>
<stop offset="0.375" stop-color="white"/>
<stop offset="0.598958" stop-color="white"/>
<stop offset="1" stop-color="#A463B0"/>
</linearGradient>
<linearGradient id="paint3_linear_1068_22302" x1="20" y1="36.6426" x2="401.267" y2="416.396" gradientUnits="userSpaceOnUse">
<stop stop-color="#00D5E8"/>
<stop offset="0.375" stop-color="white"/>
<stop offset="0.598958" stop-color="white"/>
<stop offset="1" stop-color="#A463B0"/>
</linearGradient>
<linearGradient id="paint4_linear_1068_22302" x1="20" y1="36.6426" x2="401.267" y2="416.396" gradientUnits="userSpaceOnUse">
<stop stop-color="#00D5E8"/>
<stop offset="0.375" stop-color="white"/>
<stop offset="0.598958" stop-color="white"/>
<stop offset="1" stop-color="#A463B0"/>
</linearGradient>
</defs>
</svg>
