<svg width="331" height="47" viewBox="0 0 331 47" fill="none" xmlns="http://www.w3.org/2000/svg">
<path d="M0.34 46H5.92V11.094L29.201 46H34.781V1.36H29.201V36.235L5.92 1.36H0.34V46ZM47.4794 46H75.6894V40.761H52.9974V25.819H71.9694V20.58H52.9974V6.599H75.6894V1.36H47.4794V46ZM96.6885 46H102.206L112.25 11.001L122.294 46H127.812L140.739 1.36H134.942L125.053 36.669L115.133 1.36L109.336 1.391L99.4475 36.669L89.5275 1.36H83.7615L96.6885 46ZM177.19 46H182.77V27.431L197.774 1.36H191.357L179.98 21.107L168.572 1.36H162.155L177.19 27.431V46ZM221.996 46.93C226.46 46.93 230.242 45.9483 233.342 43.985C236.442 42.0217 238.798 39.2937 240.41 35.801C242.022 32.3083 242.828 28.268 242.828 23.68C242.828 19.092 242.022 15.0517 240.41 11.559C238.798 8.06633 236.442 5.33833 233.342 3.375C230.242 1.41166 226.46 0.429999 221.996 0.429999C217.553 0.429999 213.771 1.41166 210.65 3.375C207.55 5.33833 205.194 8.06633 203.582 11.559C201.97 15.0517 201.164 19.092 201.164 23.68C201.164 28.268 201.97 32.3083 203.582 35.801C205.194 39.2937 207.55 42.0217 210.65 43.985C213.771 45.9483 217.553 46.93 221.996 46.93ZM221.996 41.66C218.669 41.6393 215.889 40.8747 213.657 39.366C211.446 37.8573 209.782 35.7597 208.666 33.073C207.55 30.3657 207.003 27.2347 207.023 23.68C207.044 20.1047 207.602 16.9633 208.697 14.256C209.813 11.5487 211.477 9.44066 213.688 7.932C215.9 6.42333 218.669 5.67933 221.996 5.7C225.324 5.72067 228.093 6.48533 230.304 7.994C232.536 9.50267 234.2 11.6003 235.295 14.287C236.411 16.9737 236.969 20.1047 236.969 23.68C236.969 27.2347 236.411 30.376 235.295 33.104C234.2 35.8113 232.536 37.9193 230.304 39.428C228.093 40.9367 225.324 41.6807 221.996 41.66ZM253.084 46H258.602V29.508H271.653L279.651 46H285.975L277.357 28.299C279.879 27.245 281.79 25.5813 283.092 23.308C284.394 21.014 285.045 18.3893 285.045 15.434C285.045 11.8793 284.105 8.831 282.224 6.289C280.364 3.72633 277.626 2.166 274.009 1.608C273.431 1.50467 272.842 1.44267 272.242 1.422C271.664 1.38066 271.157 1.36 270.723 1.36H253.084V46ZM258.602 24.269V6.599H270.537C270.93 6.599 271.374 6.61967 271.87 6.661C272.387 6.70233 272.873 6.77466 273.327 6.878C275.477 7.35333 277.027 8.43833 277.977 10.133C278.928 11.807 279.403 13.574 279.403 15.434C279.403 17.294 278.928 19.0713 277.977 20.766C277.027 22.44 275.477 23.5147 273.327 23.99C272.873 24.0933 272.387 24.1657 271.87 24.207C271.374 24.2483 270.93 24.269 270.537 24.269H258.602ZM296.833 46H302.351V24.176L323.276 46H330.406L308.551 23.029L328.825 1.36H321.881L302.351 22.316V1.36H296.833V46Z" fill="white"/>
</svg>
