<svg width="123" height="47" viewBox="0 0 123 47" fill="none" xmlns="http://www.w3.org/2000/svg">
<path d="M0.34 46H5.92V11.094L29.201 46H34.781V1.36H29.201V36.235L5.92 1.36H0.34V46ZM58.1744 46H63.7544V27.431L78.7584 1.36H72.3414L60.9644 21.107L49.5564 1.36H43.1394L58.1744 27.431V46ZM102.981 46.93C108.147 46.93 112.394 45.6177 115.722 42.993C119.07 40.3477 121.374 36.8137 122.635 32.391L117.024 30.903C116.114 34.2097 114.482 36.8343 112.126 38.777C109.79 40.699 106.742 41.66 102.981 41.66C99.6532 41.66 96.8735 40.9057 94.6415 39.397C92.4095 37.8883 90.7355 35.7803 89.6195 33.073C88.5035 30.3657 87.9558 27.2347 87.9765 23.68C87.9972 20.1047 88.5655 16.9737 89.6815 14.287C90.7975 11.5797 92.4612 9.47166 94.6725 7.963C96.8838 6.45433 99.6532 5.7 102.981 5.7C106.742 5.7 109.79 6.661 112.126 8.583C114.482 10.505 116.114 13.1297 117.024 16.457L122.635 14.969C121.374 10.5257 119.07 6.99166 115.722 4.367C112.394 1.74233 108.147 0.429999 102.981 0.429999C98.5372 0.429999 94.7552 1.41166 91.6345 3.375C88.5345 5.33833 86.1785 8.06633 84.5665 11.559C82.9545 15.0517 82.1485 19.092 82.1485 23.68C82.1485 28.268 82.9545 32.3083 84.5665 35.801C86.1785 39.2937 88.5345 42.0217 91.6345 43.985C94.7552 45.9483 98.5372 46.93 102.981 46.93Z" fill="white"/>
</svg>
