<svg width="123" height="58" viewBox="0 0 123 58" fill="none" xmlns="http://www.w3.org/2000/svg">
<path d="M26.443 7.554V12.018H56.513V7.554H26.443ZM23.901 51.264V55.728H57.505V51.264H23.901ZM38.843 8.98V53.62H43.617V8.98H38.843ZM12.369 29.874V57.96H16.895V29.874H12.369ZM11.749 0.857999C9.889 4.95 6.479 10.716 3.813 14.25L7.161 15.8C9.951 12.452 13.423 7.12 16.151 2.656L11.749 0.857999ZM19.747 7.74C16.027 14.312 9.517 23.364 4.433 28.82L7.533 30.68C12.741 25.41 19.313 16.73 24.025 9.786L19.747 7.74ZM0.465001 13.32C4.371 16.482 8.835 21.008 10.943 24.108L13.423 20.512C11.377 17.536 6.727 13.32 2.821 10.282L0.465001 13.32ZM18.693 22C21.793 26.03 25.079 31.486 26.443 34.958L30.039 32.912C28.675 29.44 25.265 24.17 22.103 20.264L18.693 22ZM0.217001 28.138L0.775001 32.54C7.285 32.168 16.337 31.548 25.141 30.928V26.96C15.903 27.456 6.479 27.89 0.217001 28.138ZM20.057 37.19C21.979 41.22 23.963 46.49 24.707 49.962L28.737 48.412C27.931 45.064 25.947 39.918 23.839 35.95L20.057 37.19ZM4.619 36.322C3.751 41.716 2.263 47.358 0.0930007 51.078C1.147 51.512 3.131 52.442 3.999 53.062C6.169 49.094 7.967 43.018 8.959 37.128L4.619 36.322ZM81.499 0.609998C78.027 9.476 72.323 18.094 65.875 23.488C67.115 24.232 69.099 25.906 70.029 26.774C76.353 20.822 82.429 11.646 86.335 1.974L81.499 0.609998ZM80.755 8.05L78.523 12.452H115.723V8.05H80.755ZM114.235 8.05V8.98C113.677 29.254 113.057 36.384 111.631 37.996C111.135 38.678 110.453 38.864 109.461 38.864C108.283 38.864 105.307 38.802 102.145 38.492C102.889 39.732 103.385 41.592 103.447 42.956C106.795 43.08 109.895 43.142 111.631 42.956C113.491 42.77 114.731 42.274 115.847 40.848C117.645 38.554 118.265 31.176 118.885 10.282C118.885 9.6 118.885 8.05 118.885 8.05H114.235ZM77.469 33.842V37.996H101.401V19.086H76.167V23.24H96.751V33.842H77.469ZM75.237 33.842V49.776C75.237 55.914 78.151 57.278 88.071 57.278C90.241 57.278 108.965 57.278 111.259 57.278C120.063 57.278 121.861 55.108 122.791 46.18C121.489 45.932 119.505 45.188 118.327 44.506C117.769 51.636 116.839 52.876 111.197 52.876C107.043 52.876 90.985 52.876 87.823 52.876C81.127 52.876 79.887 52.318 79.887 49.776V33.842H75.237Z" fill="#FFC860"/>
</svg>
