<svg fill="none" height="24" viewBox="0 0 171 24" width="171" xmlns="http://www.w3.org/2000/svg" xmlns:xlink="http://www.w3.org/1999/xlink"><clipPath id="a"><path d="m0 0h170.16v24h-170.16z"/></clipPath><g clip-path="url(#a)" fill="#fff"><path d="m124.613 5.01334v13.99996c0 .1067-.08.2134-.213.2134h-1.467c-.666 0-1.306-.3467-1.68-.9067l-6.586-10.24.213 5.0933v5.84c0 .1067-.08.2134-.213.2134h-1.92c-.107 0-.214-.08-.214-.2134v-13.99996c0-.10667.08-.21334.214-.21334h1.44c.666 0 1.306.34667 1.68.90667l6.613 10.18663-.213-5.0933v-5.78666c0-.10667.08-.21334.213-.21334h1.92c.133 0 .213.08.213.21334z"/><path d="m144.293 19.2h-2.026c-.134 0-.24-.1333-.187-.2667l5.387-13.94663c.053-.10667.16-.18667.266-.18667h2.56c.134 0 .24.08.267.18667l5.413 13.94663c.054.1334-.053.2667-.186.2667h-2.027c-.08 0-.16-.0533-.187-.1333l-4.346-11.4667c-.054-.16-.32-.16-.374 0l-4.346 11.4667c-.054.08-.134.1333-.214.1333z"/><path d="m170.107 18.88-4.054-5.1733c2.294-.4267 3.627-1.9734 3.627-4.3467 0-2.72-1.76-4.56-4.907-4.56h-5.653c-.16 0-.293.13334-.293.29334 0 1.06666.853 1.92 1.92 1.92h3.786c1.894 0 2.8.96 2.8 2.37333s-.88 2.37333-2.8 2.37333h-5.386c-.16 0-.294.1333-.294.2933v6.9334c0 .1066.08.2133.214.2133h1.92c.106 0 .213-.08.213-.2133v-5.1467h2.213l3.52 4.5867c.374.5066.96.7733 1.6.7733h1.467c.133 0 .213-.1867.107-.32z"/><path d="m138.213 4.8h-8.933c-.16 0-.267.10667-.267.26667 0 1.06667.88 1.94667 1.947 1.94667h7.253c.107 0 .214-.08.214-.21334v-1.81333c-.027-.10667-.107-.18667-.214-.18667zm0 12.1867h-6.666c-.107 0-.214-.08-.214-.2134v-3.6c0-.1066.08-.2133.214-.2133h6.16c.106 0 .213-.08.213-.2133v-1.8134c0-.1066-.08-.2133-.213-.2133h-8.4c-.16 0-.294.1333-.294.2933v7.8667c0 .16.134.2933.294.2933h8.906c.107 0 .214-.08.214-.2133v-1.8133c-.027-.08-.107-.16-.214-.16z"/><path d="m98.2133 1.22667-5.0133 7.44c-.3467.50666.32 1.11999.8.69333l4.9333-4.26667c.1334-.10666.32-.02666.32.16v13.41337c0 .1866-.24.2666-.3466.1333l-14.9334-17.866667c-.48-.586666-1.2-.9066663-1.9466-.9066663h-.5334c-1.4133 0-2.56 1.1466633-2.56 2.5600033v18.88003c0 1.4133 1.1467 2.56 2.56 2.56.88 0 1.7067-.4534 2.1867-1.2267l5.0133-7.44c.3467-.5067-.32-1.12-.8-.6933l-4.9333 4.2933c-.1333.1067-.32.0267-.32-.16v-13.44c0-.18667.24-.26667.3467-.13333l14.9333 17.86663c.48.5867 1.2.9067 1.9467.9067h.5333c1.413 0 2.56-1.1467 2.56-2.56v-18.88c0-1.41333-1.147-2.56-2.56-2.56-.88 0-1.7067.453333-2.1867 1.22667z"/><path d="m10.4 15.0667c0 2.5333-1.65333 4.1333-4.29333 4.1333h-6.10667v-14.4h5.6c2.58667 0 4.08 1.78667 4.08 3.78667 0 1.33333-.61333 2.40003-1.6 2.98663 1.46667.6134 2.32 1.8934 2.32 3.4934zm-8.58667-8.5867v4.32h3.78667c1.28 0 2.29333-.88 2.29333-2.21333 0-1.25333-.93333-2.10667-2.29333-2.10667zm3.94667 11.0133c1.6 0 2.8-.9066 2.8-2.4266 0-1.44-1.06667-2.5867-2.58667-2.5867h-4.16v5.0133z"/><path d="m19.8933 8.4h1.7867v10.8h-1.6v-1.3867c-.8 1.0667-2.0533 1.68-3.6 1.68-3.4933 0-4.2933-3.0666-4.2933-5.12v-5.9733h1.8133v5.4133c0 2.0267.64 3.9734 2.9333 3.9734 1.7867 0 2.96-1.2 2.96-3.7067z"/><path d="m24.6667 6.48v-1.84h1.7866v1.84zm0 12.72v-10.8h1.7866v10.8z"/><path d="m29.6533 19.2v-14.69333h1.7867v14.69333z"/><path d="m37.2 9.86667v5.17333c0 .88-.0267 1.4933.2133 1.9467.48.8533 1.5734.9333 3.04.6933v1.52c-1.92.4-3.92.16-4.6666-1.3067-.4267-.8533-.3734-1.6533-.3734-2.7733v-5.25333h-2.1866v-1.46667h2.1866v-3.01333h1.7867v3.01333h3.2533v1.46667z"/><path d="m46.0533 13.7867c0-3.3867 2.0267-5.68003 5.2-5.68003 3.2534 0 5.2 2.34663 5.2 5.68003 0 3.3866-2 5.7066-5.2 5.7066-3.2266 0-5.2-2.3466-5.2-5.7066zm8.5334 0c0-2.4267-1.12-4.00003-3.3334-4.00003-2.2666 0-3.3066 1.65333-3.3066 4.00003 0 2.4533 1.12 4.0266 3.3066 4.0266 2.24 0 3.3334-1.6533 3.3334-4.0266z"/><path d="m68.16 13.2267v5.9733h-1.8133v-5.4133c0-2.0267-.64-3.97337-2.9334-3.97337-1.7866 0-2.96 1.19997-2.96 3.70667v5.68h-1.7866v-10.8h1.6v1.38667c.8-1.06667 2.0533-1.68 3.6-1.68 3.4666 0 4.2933 3.06663 4.2933 5.12003z"/></g></svg>